<?xml version="1.0" encoding="UTF-8" standalone="no"?>
<!DOCTYPE svg PUBLIC "-//W3C//DTD SVG 1.1//EN"
 "http://www.w3.org/Graphics/SVG/1.1/DTD/svg11.dtd">
<!-- Generated by graphviz version 2.38.0 (20140413.2041)
 -->
<!-- Title: %3 Pages: 1 -->
<svg width="2927pt" height="548pt"
 viewBox="0.00 0.00 2926.89 548.00" xmlns="http://www.w3.org/2000/svg" xmlns:xlink="http://www.w3.org/1999/xlink">
<g id="graph0" class="graph" transform="scale(1 1) rotate(0) translate(4 544)">
<title>%3</title>
<polygon fill="white" stroke="none" points="-4,4 -4,-544 2922.89,-544 2922.89,4 -4,4"/>
<!-- [root] aws_db_instance.drupal_rds -->
<g id="node1" class="node"><title>[root] aws_db_instance.drupal_rds</title>
<polygon fill="none" stroke="black" points="2052.89,-396 1882.89,-396 1882.89,-360 2052.89,-360 2052.89,-396"/>
<text text-anchor="middle" x="1967.89" y="-374.3" font-family="Times,serif" font-size="14.00">aws_db_instance.drupal_rds</text>
</g>
<!-- [root] aws_db_subnet_group.rds_dbsubnet_group -->
<g id="node2" class="node"><title>[root] aws_db_subnet_group.rds_dbsubnet_group</title>
<polygon fill="none" stroke="black" points="2918.89,-324 2666.89,-324 2666.89,-288 2918.89,-288 2918.89,-324"/>
<text text-anchor="middle" x="2792.89" y="-302.3" font-family="Times,serif" font-size="14.00">aws_db_subnet_group.rds_dbsubnet_group</text>
</g>
<!-- [root] aws_db_instance.drupal_rds&#45;&gt;[root] aws_db_subnet_group.rds_dbsubnet_group -->
<g id="edge1" class="edge"><title>[root] aws_db_instance.drupal_rds&#45;&gt;[root] aws_db_subnet_group.rds_dbsubnet_group</title>
<path fill="none" stroke="black" d="M2053.13,-361.129C2056.08,-360.725 2059.01,-360.346 2061.89,-360 2322.02,-328.733 2391.9,-348.085 2656.5,-324.087"/>
<polygon fill="black" stroke="black" points="2657.17,-327.541 2666.8,-323.14 2656.53,-320.57 2657.17,-327.541"/>
</g>
<!-- [root] var.db_instance_type -->
<g id="node21" class="node"><title>[root] var.db_instance_type</title>
<ellipse fill="none" stroke="black" cx="1758.89" cy="-306" rx="108.581" ry="18"/>
<text text-anchor="middle" x="1758.89" y="-302.3" font-family="Times,serif" font-size="14.00">[root] var.db_instance_type</text>
</g>
<!-- [root] aws_db_instance.drupal_rds&#45;&gt;[root] var.db_instance_type -->
<g id="edge2" class="edge"><title>[root] aws_db_instance.drupal_rds&#45;&gt;[root] var.db_instance_type</title>
<path fill="none" stroke="black" d="M1917.03,-359.966C1886.04,-349.587 1846.42,-336.316 1814.59,-325.654"/>
<polygon fill="black" stroke="black" points="1815.57,-322.293 1804.98,-322.435 1813.35,-328.93 1815.57,-322.293"/>
</g>
<!-- [root] var.drupal_db -->
<g id="node22" class="node"><title>[root] var.drupal_db</title>
<ellipse fill="none" stroke="black" cx="1967.89" cy="-306" rx="82.5854" ry="18"/>
<text text-anchor="middle" x="1967.89" y="-302.3" font-family="Times,serif" font-size="14.00">[root] var.drupal_db</text>
</g>
<!-- [root] aws_db_instance.drupal_rds&#45;&gt;[root] var.drupal_db -->
<g id="edge3" class="edge"><title>[root] aws_db_instance.drupal_rds&#45;&gt;[root] var.drupal_db</title>
<path fill="none" stroke="black" d="M1967.89,-359.697C1967.89,-351.983 1967.89,-342.712 1967.89,-334.112"/>
<polygon fill="black" stroke="black" points="1971.39,-334.104 1967.89,-324.104 1964.39,-334.104 1971.39,-334.104"/>
</g>
<!-- [root] var.drupal_pass -->
<g id="node23" class="node"><title>[root] var.drupal_pass</title>
<ellipse fill="none" stroke="black" cx="2157.89" cy="-306" rx="89.0842" ry="18"/>
<text text-anchor="middle" x="2157.89" y="-302.3" font-family="Times,serif" font-size="14.00">[root] var.drupal_pass</text>
</g>
<!-- [root] aws_db_instance.drupal_rds&#45;&gt;[root] var.drupal_pass -->
<g id="edge4" class="edge"><title>[root] aws_db_instance.drupal_rds&#45;&gt;[root] var.drupal_pass</title>
<path fill="none" stroke="black" d="M2014.37,-359.876C2042.6,-349.476 2078.64,-336.197 2107.55,-325.548"/>
<polygon fill="black" stroke="black" points="2108.88,-328.787 2117.05,-322.046 2106.46,-322.219 2108.88,-328.787"/>
</g>
<!-- [root] var.drupal_user -->
<g id="node24" class="node"><title>[root] var.drupal_user</title>
<ellipse fill="none" stroke="black" cx="2352.89" cy="-306" rx="88.2844" ry="18"/>
<text text-anchor="middle" x="2352.89" y="-302.3" font-family="Times,serif" font-size="14.00">[root] var.drupal_user</text>
</g>
<!-- [root] aws_db_instance.drupal_rds&#45;&gt;[root] var.drupal_user -->
<g id="edge5" class="edge"><title>[root] aws_db_instance.drupal_rds&#45;&gt;[root] var.drupal_user</title>
<path fill="none" stroke="black" d="M2053.33,-361.465C2121.05,-349.154 2214.67,-332.132 2279.13,-320.41"/>
<polygon fill="black" stroke="black" points="2280.01,-323.809 2289.22,-318.576 2278.76,-316.922 2280.01,-323.809"/>
</g>
<!-- [root] var.rds_disk_size -->
<g id="node25" class="node"><title>[root] var.rds_disk_size</title>
<ellipse fill="none" stroke="black" cx="2553.89" cy="-306" rx="94.7833" ry="18"/>
<text text-anchor="middle" x="2553.89" y="-302.3" font-family="Times,serif" font-size="14.00">[root] var.rds_disk_size</text>
</g>
<!-- [root] aws_db_instance.drupal_rds&#45;&gt;[root] var.rds_disk_size -->
<g id="edge6" class="edge"><title>[root] aws_db_instance.drupal_rds&#45;&gt;[root] var.rds_disk_size</title>
<path fill="none" stroke="black" d="M2052.89,-361.288C2055.93,-360.835 2058.93,-360.404 2061.89,-360 2233.48,-336.568 2278.11,-345.982 2449.89,-324 2458.53,-322.895 2467.55,-321.613 2476.51,-320.259"/>
<polygon fill="black" stroke="black" points="2477.23,-323.689 2486.58,-318.704 2476.16,-316.771 2477.23,-323.689"/>
</g>
<!-- [root] aws_subnet.us&#45;east&#45;1a&#45;private -->
<g id="node17" class="node"><title>[root] aws_subnet.us&#45;east&#45;1a&#45;private</title>
<polygon fill="none" stroke="black" points="2274.89,-252 2094.89,-252 2094.89,-216 2274.89,-216 2274.89,-252"/>
<text text-anchor="middle" x="2184.89" y="-230.3" font-family="Times,serif" font-size="14.00">aws_subnet.us&#45;east&#45;1a&#45;private</text>
</g>
<!-- [root] aws_db_subnet_group.rds_dbsubnet_group&#45;&gt;[root] aws_subnet.us&#45;east&#45;1a&#45;private -->
<g id="edge7" class="edge"><title>[root] aws_db_subnet_group.rds_dbsubnet_group&#45;&gt;[root] aws_subnet.us&#45;east&#45;1a&#45;private</title>
<path fill="none" stroke="black" d="M2666.78,-289.065C2663.79,-288.704 2660.82,-288.349 2657.89,-288 2529.31,-272.701 2380.91,-256.273 2285.14,-245.83"/>
<polygon fill="black" stroke="black" points="2285.49,-242.348 2275.17,-244.745 2284.73,-249.307 2285.49,-242.348"/>
</g>
<!-- [root] aws_eip.open_vpn_eip -->
<g id="node3" class="node"><title>[root] aws_eip.open_vpn_eip</title>
<polygon fill="none" stroke="black" points="1304.39,-396 1163.39,-396 1163.39,-360 1304.39,-360 1304.39,-396"/>
<text text-anchor="middle" x="1233.89" y="-374.3" font-family="Times,serif" font-size="14.00">aws_eip.open_vpn_eip</text>
</g>
<!-- [root] aws_instance.open_vpn -->
<g id="node5" class="node"><title>[root] aws_instance.open_vpn</title>
<polygon fill="none" stroke="black" points="1680.89,-252 1534.89,-252 1534.89,-216 1680.89,-216 1680.89,-252"/>
<text text-anchor="middle" x="1607.89" y="-230.3" font-family="Times,serif" font-size="14.00">aws_instance.open_vpn</text>
</g>
<!-- [root] aws_eip.open_vpn_eip&#45;&gt;[root] aws_instance.open_vpn -->
<g id="edge8" class="edge"><title>[root] aws_eip.open_vpn_eip&#45;&gt;[root] aws_instance.open_vpn</title>
<path fill="none" stroke="black" d="M1257.36,-359.916C1270.94,-349.804 1288.19,-336.554 1302.89,-324 1320.58,-308.894 1320.2,-298.646 1340.89,-288 1412.61,-251.092 1441.6,-267.183 1524.72,-252.129"/>
<polygon fill="black" stroke="black" points="1525.42,-255.56 1534.58,-250.244 1524.1,-248.684 1525.42,-255.56"/>
</g>
<!-- [root] aws_elasticache_cluster.redis_cluster -->
<g id="node4" class="node"><title>[root] aws_elasticache_cluster.redis_cluster</title>
<polygon fill="none" stroke="black" points="780.39,-396 561.39,-396 561.39,-360 780.39,-360 780.39,-396"/>
<text text-anchor="middle" x="670.89" y="-374.3" font-family="Times,serif" font-size="14.00">aws_elasticache_cluster.redis_cluster</text>
</g>
<!-- [root] provider.aws -->
<g id="node20" class="node"><title>[root] provider.aws</title>
<polygon fill="none" stroke="black" points="300.89,-36 220.957,-18 300.89,-3.55271e-15 380.824,-18 300.89,-36"/>
<text text-anchor="middle" x="300.89" y="-14.3" font-family="Times,serif" font-size="14.00">provider.aws</text>
</g>
<!-- [root] aws_elasticache_cluster.redis_cluster&#45;&gt;[root] provider.aws -->
<g id="edge9" class="edge"><title>[root] aws_elasticache_cluster.redis_cluster&#45;&gt;[root] provider.aws</title>
<path fill="none" stroke="black" d="M561.292,-360.986C466.185,-346.863 343.031,-327.931 338.89,-324 309.556,-296.153 319.89,-275.447 319.89,-235 319.89,-235 319.89,-235 319.89,-161 319.89,-120.419 312.173,-73.8861 306.575,-45.4716"/>
<polygon fill="black" stroke="black" points="309.974,-44.6221 304.554,-35.5187 303.114,-46.0152 309.974,-44.6221"/>
</g>
<!-- [root] var.redis_node_type -->
<g id="node26" class="node"><title>[root] var.redis_node_type</title>
<ellipse fill="none" stroke="black" cx="452.89" cy="-306" rx="104.782" ry="18"/>
<text text-anchor="middle" x="452.89" y="-302.3" font-family="Times,serif" font-size="14.00">[root] var.redis_node_type</text>
</g>
<!-- [root] aws_elasticache_cluster.redis_cluster&#45;&gt;[root] var.redis_node_type -->
<g id="edge10" class="edge"><title>[root] aws_elasticache_cluster.redis_cluster&#45;&gt;[root] var.redis_node_type</title>
<path fill="none" stroke="black" d="M617.84,-359.966C585.148,-349.468 543.243,-336.012 509.852,-325.29"/>
<polygon fill="black" stroke="black" points="510.821,-321.925 500.229,-322.201 508.681,-328.59 510.821,-321.925"/>
</g>
<!-- [root] var.redis_parameter_group -->
<g id="node27" class="node"><title>[root] var.redis_parameter_group</title>
<ellipse fill="none" stroke="black" cx="703.89" cy="-306" rx="128.877" ry="18"/>
<text text-anchor="middle" x="703.89" y="-302.3" font-family="Times,serif" font-size="14.00">[root] var.redis_parameter_group</text>
</g>
<!-- [root] aws_elasticache_cluster.redis_cluster&#45;&gt;[root] var.redis_parameter_group -->
<g id="edge11" class="edge"><title>[root] aws_elasticache_cluster.redis_cluster&#45;&gt;[root] var.redis_parameter_group</title>
<path fill="none" stroke="black" d="M679.048,-359.697C682.804,-351.728 687.344,-342.1 691.509,-333.264"/>
<polygon fill="black" stroke="black" points="694.729,-334.642 695.827,-324.104 688.397,-331.657 694.729,-334.642"/>
</g>
<!-- [root] aws_security_group.open_vpn_sg -->
<g id="node16" class="node"><title>[root] aws_security_group.open_vpn_sg</title>
<polygon fill="none" stroke="black" points="1319.39,-180 1118.39,-180 1118.39,-144 1319.39,-144 1319.39,-180"/>
<text text-anchor="middle" x="1218.89" y="-158.3" font-family="Times,serif" font-size="14.00">aws_security_group.open_vpn_sg</text>
</g>
<!-- [root] aws_instance.open_vpn&#45;&gt;[root] aws_security_group.open_vpn_sg -->
<g id="edge12" class="edge"><title>[root] aws_instance.open_vpn&#45;&gt;[root] aws_security_group.open_vpn_sg</title>
<path fill="none" stroke="black" d="M1534.6,-217.678C1531.66,-217.104 1528.75,-216.543 1525.89,-216 1460.97,-203.669 1388.08,-191.036 1329.63,-181.198"/>
<polygon fill="black" stroke="black" points="1330.07,-177.724 1319.63,-179.519 1328.92,-184.627 1330.07,-177.724"/>
</g>
<!-- [root] aws_subnet.us&#45;east&#45;1a&#45;public -->
<g id="node18" class="node"><title>[root] aws_subnet.us&#45;east&#45;1a&#45;public</title>
<polygon fill="none" stroke="black" points="1023.89,-180 847.89,-180 847.89,-144 1023.89,-144 1023.89,-180"/>
<text text-anchor="middle" x="935.89" y="-158.3" font-family="Times,serif" font-size="14.00">aws_subnet.us&#45;east&#45;1a&#45;public</text>
</g>
<!-- [root] aws_instance.open_vpn&#45;&gt;[root] aws_subnet.us&#45;east&#45;1a&#45;public -->
<g id="edge13" class="edge"><title>[root] aws_instance.open_vpn&#45;&gt;[root] aws_subnet.us&#45;east&#45;1a&#45;public</title>
<path fill="none" stroke="black" d="M1534.65,-217.368C1531.7,-216.88 1528.77,-216.421 1525.89,-216 1341.83,-189.072 1294.13,-197.096 1108.89,-180 1084.72,-177.769 1058.67,-175.263 1034.29,-172.873"/>
<polygon fill="black" stroke="black" points="1034.62,-169.389 1024.33,-171.893 1033.93,-176.355 1034.62,-169.389"/>
</g>
<!-- [root] var.ami&#45;ubuntu -->
<g id="node28" class="node"><title>[root] var.ami&#45;ubuntu</title>
<ellipse fill="none" stroke="black" cx="1665.89" cy="-162" rx="87.9851" ry="18"/>
<text text-anchor="middle" x="1665.89" y="-158.3" font-family="Times,serif" font-size="14.00">[root] var.ami&#45;ubuntu</text>
</g>
<!-- [root] aws_instance.open_vpn&#45;&gt;[root] var.ami&#45;ubuntu -->
<g id="edge14" class="edge"><title>[root] aws_instance.open_vpn&#45;&gt;[root] var.ami&#45;ubuntu</title>
<path fill="none" stroke="black" d="M1622.23,-215.697C1629.18,-207.305 1637.66,-197.07 1645.29,-187.861"/>
<polygon fill="black" stroke="black" points="1648.03,-190.038 1651.72,-180.104 1642.64,-185.571 1648.03,-190.038"/>
</g>
<!-- [root] var.aws_az -->
<g id="node29" class="node"><title>[root] var.aws_az</title>
<ellipse fill="none" stroke="black" cx="1844.89" cy="-162" rx="72.5877" ry="18"/>
<text text-anchor="middle" x="1844.89" y="-158.3" font-family="Times,serif" font-size="14.00">[root] var.aws_az</text>
</g>
<!-- [root] aws_instance.open_vpn&#45;&gt;[root] var.aws_az -->
<g id="edge15" class="edge"><title>[root] aws_instance.open_vpn&#45;&gt;[root] var.aws_az</title>
<path fill="none" stroke="black" d="M1665.56,-215.966C1703.55,-204.746 1752.97,-190.148 1790.31,-179.12"/>
<polygon fill="black" stroke="black" points="1791.42,-182.443 1800.02,-176.254 1789.44,-175.73 1791.42,-182.443"/>
</g>
<!-- [root] var.aws_key_name -->
<g id="node30" class="node"><title>[root] var.aws_key_name</title>
<ellipse fill="none" stroke="black" cx="2036.89" cy="-162" rx="101.282" ry="18"/>
<text text-anchor="middle" x="2036.89" y="-158.3" font-family="Times,serif" font-size="14.00">[root] var.aws_key_name</text>
</g>
<!-- [root] aws_instance.open_vpn&#45;&gt;[root] var.aws_key_name -->
<g id="edge16" class="edge"><title>[root] aws_instance.open_vpn&#45;&gt;[root] var.aws_key_name</title>
<path fill="none" stroke="black" d="M1681.15,-221.046C1757.23,-208.632 1875.98,-189.256 1955.08,-176.349"/>
<polygon fill="black" stroke="black" points="1955.7,-179.794 1965,-174.73 1954.57,-172.886 1955.7,-179.794"/>
</g>
<!-- [root] var.aws_vpn_instance -->
<g id="node31" class="node"><title>[root] var.aws_vpn_instance</title>
<ellipse fill="none" stroke="black" cx="1448.89" cy="-162" rx="111.28" ry="18"/>
<text text-anchor="middle" x="1448.89" y="-158.3" font-family="Times,serif" font-size="14.00">[root] var.aws_vpn_instance</text>
</g>
<!-- [root] aws_instance.open_vpn&#45;&gt;[root] var.aws_vpn_instance -->
<g id="edge17" class="edge"><title>[root] aws_instance.open_vpn&#45;&gt;[root] var.aws_vpn_instance</title>
<path fill="none" stroke="black" d="M1568.99,-215.876C1546.61,-206.022 1518.36,-193.584 1494.88,-183.247"/>
<polygon fill="black" stroke="black" points="1496.04,-179.932 1485.48,-179.106 1493.22,-186.339 1496.04,-179.932"/>
</g>
<!-- [root] aws_internet_gateway.open_vpn_gateway -->
<g id="node6" class="node"><title>[root] aws_internet_gateway.open_vpn_gateway</title>
<polygon fill="none" stroke="black" points="1516.89,-252 1270.89,-252 1270.89,-216 1516.89,-216 1516.89,-252"/>
<text text-anchor="middle" x="1393.89" y="-230.3" font-family="Times,serif" font-size="14.00">aws_internet_gateway.open_vpn_gateway</text>
</g>
<!-- [root] aws_vpc.open_vpn_vpc -->
<g id="node19" class="node"><title>[root] aws_vpc.open_vpn_vpc</title>
<polygon fill="none" stroke="black" points="1163.39,-108 1016.39,-108 1016.39,-72 1163.39,-72 1163.39,-108"/>
<text text-anchor="middle" x="1089.89" y="-86.3" font-family="Times,serif" font-size="14.00">aws_vpc.open_vpn_vpc</text>
</g>
<!-- [root] aws_internet_gateway.open_vpn_gateway&#45;&gt;[root] aws_vpc.open_vpn_vpc -->
<g id="edge18" class="edge"><title>[root] aws_internet_gateway.open_vpn_gateway&#45;&gt;[root] aws_vpc.open_vpn_vpc</title>
<path fill="none" stroke="black" d="M1270.83,-216.555C1199.36,-205.889 1121.04,-191.829 1108.89,-180 1092.58,-164.115 1088.61,-137.914 1088.26,-118.043"/>
<polygon fill="black" stroke="black" points="1091.76,-118.077 1088.37,-108.039 1084.76,-118 1091.76,-118.077"/>
</g>
<!-- [root] aws_lb.alb_pci -->
<g id="node7" class="node"><title>[root] aws_lb.alb_pci</title>
<polygon fill="none" stroke="black" points="1042.89,-252 944.89,-252 944.89,-216 1042.89,-216 1042.89,-252"/>
<text text-anchor="middle" x="993.89" y="-230.3" font-family="Times,serif" font-size="14.00">aws_lb.alb_pci</text>
</g>
<!-- [root] aws_lb.alb_pci&#45;&gt;[root] aws_security_group.open_vpn_sg -->
<g id="edge19" class="edge"><title>[root] aws_lb.alb_pci&#45;&gt;[root] aws_security_group.open_vpn_sg</title>
<path fill="none" stroke="black" d="M1042.99,-217.725C1075.61,-207.576 1118.79,-194.142 1154.21,-183.124"/>
<polygon fill="black" stroke="black" points="1155.46,-186.398 1163.97,-180.085 1153.38,-179.714 1155.46,-186.398"/>
</g>
<!-- [root] aws_lb.alb_pci&#45;&gt;[root] aws_subnet.us&#45;east&#45;1a&#45;public -->
<g id="edge20" class="edge"><title>[root] aws_lb.alb_pci&#45;&gt;[root] aws_subnet.us&#45;east&#45;1a&#45;public</title>
<path fill="none" stroke="black" d="M979.553,-215.697C972.6,-207.305 964.12,-197.07 956.49,-187.861"/>
<polygon fill="black" stroke="black" points="959.138,-185.571 950.063,-180.104 953.748,-190.038 959.138,-185.571"/>
</g>
<!-- [root] aws_lb_listener.pci_lb_listener -->
<g id="node8" class="node"><title>[root] aws_lb_listener.pci_lb_listener</title>
<polygon fill="none" stroke="black" points="1073.39,-324 888.39,-324 888.39,-288 1073.39,-288 1073.39,-324"/>
<text text-anchor="middle" x="980.89" y="-302.3" font-family="Times,serif" font-size="14.00">aws_lb_listener.pci_lb_listener</text>
</g>
<!-- [root] aws_lb_listener.pci_lb_listener&#45;&gt;[root] aws_lb.alb_pci -->
<g id="edge21" class="edge"><title>[root] aws_lb_listener.pci_lb_listener&#45;&gt;[root] aws_lb.alb_pci</title>
<path fill="none" stroke="black" d="M984.104,-287.697C985.536,-279.983 987.258,-270.712 988.855,-262.112"/>
<polygon fill="black" stroke="black" points="992.329,-262.575 990.714,-252.104 985.447,-261.297 992.329,-262.575"/>
</g>
<!-- [root] aws_lb_target_group.alb_pci_tg -->
<g id="node9" class="node"><title>[root] aws_lb_target_group.alb_pci_tg</title>
<polygon fill="none" stroke="black" points="1252.39,-252 1061.39,-252 1061.39,-216 1252.39,-216 1252.39,-252"/>
<text text-anchor="middle" x="1156.89" y="-230.3" font-family="Times,serif" font-size="14.00">aws_lb_target_group.alb_pci_tg</text>
</g>
<!-- [root] aws_lb_listener.pci_lb_listener&#45;&gt;[root] aws_lb_target_group.alb_pci_tg -->
<g id="edge22" class="edge"><title>[root] aws_lb_listener.pci_lb_listener&#45;&gt;[root] aws_lb_target_group.alb_pci_tg</title>
<path fill="none" stroke="black" d="M1023.94,-287.876C1048.22,-278.222 1078.73,-266.087 1104.4,-255.878"/>
<polygon fill="black" stroke="black" points="1105.98,-259.016 1113.98,-252.068 1103.39,-252.512 1105.98,-259.016"/>
</g>
<!-- [root] var.self_signed_arn -->
<g id="node32" class="node"><title>[root] var.self_signed_arn</title>
<ellipse fill="none" stroke="black" cx="823.89" cy="-234" rx="102.882" ry="18"/>
<text text-anchor="middle" x="823.89" y="-230.3" font-family="Times,serif" font-size="14.00">[root] var.self_signed_arn</text>
</g>
<!-- [root] aws_lb_listener.pci_lb_listener&#45;&gt;[root] var.self_signed_arn -->
<g id="edge23" class="edge"><title>[root] aws_lb_listener.pci_lb_listener&#45;&gt;[root] var.self_signed_arn</title>
<path fill="none" stroke="black" d="M942.484,-287.876C920.303,-277.986 892.284,-265.494 869.051,-255.135"/>
<polygon fill="black" stroke="black" points="870.307,-251.863 859.748,-250.987 867.456,-258.256 870.307,-251.863"/>
</g>
<!-- [root] aws_lb_target_group.alb_pci_tg&#45;&gt;[root] aws_vpc.open_vpn_vpc -->
<g id="edge24" class="edge"><title>[root] aws_lb_target_group.alb_pci_tg&#45;&gt;[root] aws_vpc.open_vpn_vpc</title>
<path fill="none" stroke="black" d="M1114.78,-215.874C1099.71,-207.45 1084.36,-195.67 1075.89,-180 1065.48,-160.757 1070.63,-135.975 1077.44,-117.45"/>
<polygon fill="black" stroke="black" points="1080.7,-118.72 1081.19,-108.137 1074.2,-116.105 1080.7,-118.72"/>
</g>
<!-- [root] aws_route53_zone.hosted_zone -->
<g id="node10" class="node"><title>[root] aws_route53_zone.hosted_zone</title>
<polygon fill="none" stroke="black" points="338.39,-396 149.39,-396 149.39,-360 338.39,-360 338.39,-396"/>
<text text-anchor="middle" x="243.89" y="-374.3" font-family="Times,serif" font-size="14.00">aws_route53_zone.hosted_zone</text>
</g>
<!-- [root] aws_route53_zone.hosted_zone&#45;&gt;[root] provider.aws -->
<g id="edge25" class="edge"><title>[root] aws_route53_zone.hosted_zone&#45;&gt;[root] provider.aws</title>
<path fill="none" stroke="black" d="M243.89,-359.951C243.89,-333.292 243.89,-280.115 243.89,-235 243.89,-235 243.89,-235 243.89,-161 243.89,-120.031 251.554,-109.571 267.89,-72 272.364,-61.7119 278.614,-51.0795 284.473,-42.0629"/>
<polygon fill="black" stroke="black" points="287.449,-43.9096 290.122,-33.6574 281.639,-40.0052 287.449,-43.9096"/>
</g>
<!-- [root] var.poc_hosted_zone -->
<g id="node33" class="node"><title>[root] var.poc_hosted_zone</title>
<ellipse fill="none" stroke="black" cx="107.89" cy="-306" rx="107.781" ry="18"/>
<text text-anchor="middle" x="107.89" y="-302.3" font-family="Times,serif" font-size="14.00">[root] var.poc_hosted_zone</text>
</g>
<!-- [root] aws_route53_zone.hosted_zone&#45;&gt;[root] var.poc_hosted_zone -->
<g id="edge26" class="edge"><title>[root] aws_route53_zone.hosted_zone&#45;&gt;[root] var.poc_hosted_zone</title>
<path fill="none" stroke="black" d="M210.621,-359.876C191.884,-350.232 168.339,-338.113 148.518,-327.911"/>
<polygon fill="black" stroke="black" points="149.908,-324.69 139.415,-323.226 146.704,-330.914 149.908,-324.69"/>
</g>
<!-- [root] aws_route_table.us&#45;east&#45;1a&#45;private -->
<g id="node11" class="node"><title>[root] aws_route_table.us&#45;east&#45;1a&#45;private</title>
<polygon fill="none" stroke="black" points="1555.89,-324 1349.89,-324 1349.89,-288 1555.89,-288 1555.89,-324"/>
<text text-anchor="middle" x="1452.89" y="-302.3" font-family="Times,serif" font-size="14.00">aws_route_table.us&#45;east&#45;1a&#45;private</text>
</g>
<!-- [root] aws_route_table.us&#45;east&#45;1a&#45;private&#45;&gt;[root] aws_instance.open_vpn -->
<g id="edge27" class="edge"><title>[root] aws_route_table.us&#45;east&#45;1a&#45;private&#45;&gt;[root] aws_instance.open_vpn</title>
<path fill="none" stroke="black" d="M1490.81,-287.876C1511.9,-278.349 1538.35,-266.407 1560.76,-256.283"/>
<polygon fill="black" stroke="black" points="1562.42,-259.374 1570.1,-252.068 1559.54,-252.994 1562.42,-259.374"/>
</g>
<!-- [root] aws_route_table.us&#45;east&#45;1a&#45;public -->
<g id="node12" class="node"><title>[root] aws_route_table.us&#45;east&#45;1a&#45;public</title>
<polygon fill="none" stroke="black" points="1293.89,-324 1091.89,-324 1091.89,-288 1293.89,-288 1293.89,-324"/>
<text text-anchor="middle" x="1192.89" y="-302.3" font-family="Times,serif" font-size="14.00">aws_route_table.us&#45;east&#45;1a&#45;public</text>
</g>
<!-- [root] aws_route_table.us&#45;east&#45;1a&#45;public&#45;&gt;[root] aws_internet_gateway.open_vpn_gateway -->
<g id="edge28" class="edge"><title>[root] aws_route_table.us&#45;east&#45;1a&#45;public&#45;&gt;[root] aws_internet_gateway.open_vpn_gateway</title>
<path fill="none" stroke="black" d="M1241.8,-287.966C1269.89,-278.185 1305.35,-265.836 1334.96,-255.524"/>
<polygon fill="black" stroke="black" points="1336.47,-258.705 1344.76,-252.111 1334.16,-252.094 1336.47,-258.705"/>
</g>
<!-- [root] aws_route_table_association.us&#45;east&#45;1a&#45;private -->
<g id="node13" class="node"><title>[root] aws_route_table_association.us&#45;east&#45;1a&#45;private</title>
<polygon fill="none" stroke="black" points="1594.89,-396 1322.89,-396 1322.89,-360 1594.89,-360 1594.89,-396"/>
<text text-anchor="middle" x="1458.89" y="-374.3" font-family="Times,serif" font-size="14.00">aws_route_table_association.us&#45;east&#45;1a&#45;private</text>
</g>
<!-- [root] aws_route_table_association.us&#45;east&#45;1a&#45;private&#45;&gt;[root] aws_route_table.us&#45;east&#45;1a&#45;private -->
<g id="edge29" class="edge"><title>[root] aws_route_table_association.us&#45;east&#45;1a&#45;private&#45;&gt;[root] aws_route_table.us&#45;east&#45;1a&#45;private</title>
<path fill="none" stroke="black" d="M1457.41,-359.697C1456.75,-351.983 1455.95,-342.712 1455.21,-334.112"/>
<polygon fill="black" stroke="black" points="1458.7,-333.769 1454.36,-324.104 1451.72,-334.367 1458.7,-333.769"/>
</g>
<!-- [root] aws_route_table_association.us&#45;east&#45;1a&#45;private&#45;&gt;[root] aws_subnet.us&#45;east&#45;1a&#45;private -->
<g id="edge30" class="edge"><title>[root] aws_route_table_association.us&#45;east&#45;1a&#45;private&#45;&gt;[root] aws_subnet.us&#45;east&#45;1a&#45;private</title>
<path fill="none" stroke="black" d="M1492.96,-359.951C1543.47,-334.729 1633.15,-290.192 1640.89,-288 1721.7,-265.116 1950.85,-248.538 2084.56,-240.487"/>
<polygon fill="black" stroke="black" points="2085.04,-243.965 2094.81,-239.876 2084.62,-236.978 2085.04,-243.965"/>
</g>
<!-- [root] aws_route_table_association.us&#45;east&#45;1a&#45;public -->
<g id="node14" class="node"><title>[root] aws_route_table_association.us&#45;east&#45;1a&#45;public</title>
<polygon fill="none" stroke="black" points="1106.39,-396 837.39,-396 837.39,-360 1106.39,-360 1106.39,-396"/>
<text text-anchor="middle" x="971.89" y="-374.3" font-family="Times,serif" font-size="14.00">aws_route_table_association.us&#45;east&#45;1a&#45;public</text>
</g>
<!-- [root] aws_route_table_association.us&#45;east&#45;1a&#45;public&#45;&gt;[root] aws_route_table.us&#45;east&#45;1a&#45;public -->
<g id="edge31" class="edge"><title>[root] aws_route_table_association.us&#45;east&#45;1a&#45;public&#45;&gt;[root] aws_route_table.us&#45;east&#45;1a&#45;public</title>
<path fill="none" stroke="black" d="M1025.67,-359.966C1056.82,-350.1 1096.21,-337.622 1128.94,-327.255"/>
<polygon fill="black" stroke="black" points="1130.39,-330.467 1138.87,-324.111 1128.28,-323.794 1130.39,-330.467"/>
</g>
<!-- [root] aws_route_table_association.us&#45;east&#45;1a&#45;public&#45;&gt;[root] aws_subnet.us&#45;east&#45;1a&#45;public -->
<g id="edge32" class="edge"><title>[root] aws_route_table_association.us&#45;east&#45;1a&#45;public&#45;&gt;[root] aws_subnet.us&#45;east&#45;1a&#45;public</title>
<path fill="none" stroke="black" d="M937.017,-359.839C918.981,-350.303 897.01,-337.628 878.89,-324 860.554,-310.209 861.791,-299.419 841.89,-288 789.89,-258.163 748.188,-299.715 711.89,-252 673.156,-201.082 760.579,-179.239 837.289,-169.903"/>
<polygon fill="black" stroke="black" points="838.011,-173.343 847.544,-168.72 837.209,-166.389 838.011,-173.343"/>
</g>
<!-- [root] aws_s3_bucket.pci_dss_bucket -->
<g id="node15" class="node"><title>[root] aws_s3_bucket.pci_dss_bucket</title>
<polygon fill="none" stroke="black" points="542.89,-396 356.89,-396 356.89,-360 542.89,-360 542.89,-396"/>
<text text-anchor="middle" x="449.89" y="-374.3" font-family="Times,serif" font-size="14.00">aws_s3_bucket.pci_dss_bucket</text>
</g>
<!-- [root] aws_s3_bucket.pci_dss_bucket&#45;&gt;[root] provider.aws -->
<g id="edge33" class="edge"><title>[root] aws_s3_bucket.pci_dss_bucket&#45;&gt;[root] provider.aws</title>
<path fill="none" stroke="black" d="M363.053,-359.877C341.933,-352.031 321.082,-340.612 305.89,-324 278.243,-293.767 281.89,-275.969 281.89,-235 281.89,-235 281.89,-235 281.89,-161 281.89,-120.419 289.608,-73.8861 295.206,-45.4716"/>
<polygon fill="black" stroke="black" points="298.667,-46.0152 297.227,-35.5187 291.807,-44.6221 298.667,-46.0152"/>
</g>
<!-- [root] aws_security_group.open_vpn_sg&#45;&gt;[root] aws_vpc.open_vpn_vpc -->
<g id="edge34" class="edge"><title>[root] aws_security_group.open_vpn_sg&#45;&gt;[root] aws_vpc.open_vpn_vpc</title>
<path fill="none" stroke="black" d="M1187.33,-143.876C1170.23,-134.596 1148.91,-123.025 1130.57,-113.075"/>
<polygon fill="black" stroke="black" points="1132.03,-109.883 1121.57,-108.19 1128.69,-116.035 1132.03,-109.883"/>
</g>
<!-- [root] var.private_subnet_cidr -->
<g id="node34" class="node"><title>[root] var.private_subnet_cidr</title>
<ellipse fill="none" stroke="black" cx="1750.89" cy="-90" rx="116.18" ry="18"/>
<text text-anchor="middle" x="1750.89" y="-86.3" font-family="Times,serif" font-size="14.00">[root] var.private_subnet_cidr</text>
</g>
<!-- [root] aws_security_group.open_vpn_sg&#45;&gt;[root] var.private_subnet_cidr -->
<g id="edge35" class="edge"><title>[root] aws_security_group.open_vpn_sg&#45;&gt;[root] var.private_subnet_cidr</title>
<path fill="none" stroke="black" d="M1319.58,-145.322C1322.72,-144.87 1325.83,-144.429 1328.89,-144 1438.97,-128.584 1565.52,-112.971 1651.09,-102.724"/>
<polygon fill="black" stroke="black" points="1651.55,-106.195 1661.06,-101.533 1650.72,-99.2442 1651.55,-106.195"/>
</g>
<!-- [root] aws_subnet.us&#45;east&#45;1a&#45;private&#45;&gt;[root] aws_vpc.open_vpn_vpc -->
<g id="edge36" class="edge"><title>[root] aws_subnet.us&#45;east&#45;1a&#45;private&#45;&gt;[root] aws_vpc.open_vpn_vpc</title>
<path fill="none" stroke="black" d="M2182.96,-215.878C2179.6,-195.019 2170.6,-160.523 2146.89,-144 2126.99,-130.131 1420.4,-103.069 1173.79,-94.0251"/>
<polygon fill="black" stroke="black" points="1173.57,-90.5149 1163.45,-93.6466 1173.31,-97.5102 1173.57,-90.5149"/>
</g>
<!-- [root] aws_subnet.us&#45;east&#45;1a&#45;private&#45;&gt;[root] var.private_subnet_cidr -->
<g id="edge37" class="edge"><title>[root] aws_subnet.us&#45;east&#45;1a&#45;private&#45;&gt;[root] var.private_subnet_cidr</title>
<path fill="none" stroke="black" d="M2189.74,-215.768C2194.21,-195.769 2197.76,-163.101 2179.89,-144 2158.81,-121.466 1987.77,-106.012 1868.14,-97.8404"/>
<polygon fill="black" stroke="black" points="1868.03,-94.325 1857.82,-97.1445 1867.56,-101.309 1868.03,-94.325"/>
</g>
<!-- [root] aws_subnet.us&#45;east&#45;1a&#45;public&#45;&gt;[root] aws_vpc.open_vpn_vpc -->
<g id="edge38" class="edge"><title>[root] aws_subnet.us&#45;east&#45;1a&#45;public&#45;&gt;[root] aws_vpc.open_vpn_vpc</title>
<path fill="none" stroke="black" d="M973.563,-143.876C994.522,-134.349 1020.8,-122.407 1043.07,-112.283"/>
<polygon fill="black" stroke="black" points="1044.68,-115.393 1052.34,-108.068 1041.79,-109.02 1044.68,-115.393"/>
</g>
<!-- [root] var.public_subnet_cidr -->
<g id="node35" class="node"><title>[root] var.public_subnet_cidr</title>
<ellipse fill="none" stroke="black" cx="883.89" cy="-90" rx="114.28" ry="18"/>
<text text-anchor="middle" x="883.89" y="-86.3" font-family="Times,serif" font-size="14.00">[root] var.public_subnet_cidr</text>
</g>
<!-- [root] aws_subnet.us&#45;east&#45;1a&#45;public&#45;&gt;[root] var.public_subnet_cidr -->
<g id="edge39" class="edge"><title>[root] aws_subnet.us&#45;east&#45;1a&#45;public&#45;&gt;[root] var.public_subnet_cidr</title>
<path fill="none" stroke="black" d="M923.036,-143.697C916.865,-135.389 909.353,-125.277 902.566,-116.141"/>
<polygon fill="black" stroke="black" points="905.369,-114.045 896.597,-108.104 899.75,-118.219 905.369,-114.045"/>
</g>
<!-- [root] aws_vpc.open_vpn_vpc&#45;&gt;[root] provider.aws -->
<g id="edge40" class="edge"><title>[root] aws_vpc.open_vpn_vpc&#45;&gt;[root] provider.aws</title>
<path fill="none" stroke="black" d="M1016.21,-73.4023C1013.07,-72.8972 1009.95,-72.4264 1006.89,-72 779.021,-40.2419 506.936,-26.5905 377.118,-21.546"/>
<polygon fill="black" stroke="black" points="377.014,-18.0395 366.888,-21.1549 376.747,-25.0344 377.014,-18.0395"/>
</g>
<!-- [root] var.vpc_cidr -->
<g id="node36" class="node"><title>[root] var.vpc_cidr</title>
<ellipse fill="none" stroke="black" cx="1089.89" cy="-18" rx="77.1866" ry="18"/>
<text text-anchor="middle" x="1089.89" y="-14.3" font-family="Times,serif" font-size="14.00">[root] var.vpc_cidr</text>
</g>
<!-- [root] aws_vpc.open_vpn_vpc&#45;&gt;[root] var.vpc_cidr -->
<g id="edge41" class="edge"><title>[root] aws_vpc.open_vpn_vpc&#45;&gt;[root] var.vpc_cidr</title>
<path fill="none" stroke="black" d="M1089.89,-71.6966C1089.89,-63.9827 1089.89,-54.7125 1089.89,-46.1124"/>
<polygon fill="black" stroke="black" points="1093.39,-46.1043 1089.89,-36.1043 1086.39,-46.1044 1093.39,-46.1043"/>
</g>
<!-- [root] meta.count&#45;boundary (count boundary fixup) -->
<g id="node37" class="node"><title>[root] meta.count&#45;boundary (count boundary fixup)</title>
<ellipse fill="none" stroke="black" cx="1183.89" cy="-450" rx="193.066" ry="18"/>
<text text-anchor="middle" x="1183.89" y="-446.3" font-family="Times,serif" font-size="14.00">[root] meta.count&#45;boundary (count boundary fixup)</text>
</g>
<!-- [root] meta.count&#45;boundary (count boundary fixup)&#45;&gt;[root] aws_db_instance.drupal_rds -->
<g id="edge42" class="edge"><title>[root] meta.count&#45;boundary (count boundary fixup)&#45;&gt;[root] aws_db_instance.drupal_rds</title>
<path fill="none" stroke="black" d="M1324.93,-437.672C1450.63,-427.401 1639.61,-411.535 1803.89,-396 1826.13,-393.897 1850.06,-391.496 1872.57,-389.174"/>
<polygon fill="black" stroke="black" points="1873.21,-392.626 1882.8,-388.115 1872.49,-385.663 1873.21,-392.626"/>
</g>
<!-- [root] meta.count&#45;boundary (count boundary fixup)&#45;&gt;[root] aws_eip.open_vpn_eip -->
<g id="edge43" class="edge"><title>[root] meta.count&#45;boundary (count boundary fixup)&#45;&gt;[root] aws_eip.open_vpn_eip</title>
<path fill="none" stroke="black" d="M1196.25,-431.697C1202.12,-423.474 1209.26,-413.483 1215.73,-404.421"/>
<polygon fill="black" stroke="black" points="1218.71,-406.276 1221.67,-396.104 1213.01,-402.207 1218.71,-406.276"/>
</g>
<!-- [root] meta.count&#45;boundary (count boundary fixup)&#45;&gt;[root] aws_elasticache_cluster.redis_cluster -->
<g id="edge44" class="edge"><title>[root] meta.count&#45;boundary (count boundary fixup)&#45;&gt;[root] aws_elasticache_cluster.redis_cluster</title>
<path fill="none" stroke="black" d="M1079.77,-434.792C996.015,-423.364 878.261,-407.296 790.618,-395.337"/>
<polygon fill="black" stroke="black" points="791.004,-391.857 780.623,-393.973 790.058,-398.793 791.004,-391.857"/>
</g>
<!-- [root] meta.count&#45;boundary (count boundary fixup)&#45;&gt;[root] aws_lb_listener.pci_lb_listener -->
<g id="edge45" class="edge"><title>[root] meta.count&#45;boundary (count boundary fixup)&#45;&gt;[root] aws_lb_listener.pci_lb_listener</title>
<path fill="none" stroke="black" d="M1174.35,-431.671C1162.67,-411.887 1141.16,-379.72 1114.89,-360 1096.67,-346.324 1074.46,-335.671 1053.4,-327.622"/>
<polygon fill="black" stroke="black" points="1054.42,-324.267 1043.83,-324.105 1052.01,-330.838 1054.42,-324.267"/>
</g>
<!-- [root] meta.count&#45;boundary (count boundary fixup)&#45;&gt;[root] aws_route53_zone.hosted_zone -->
<g id="edge46" class="edge"><title>[root] meta.count&#45;boundary (count boundary fixup)&#45;&gt;[root] aws_route53_zone.hosted_zone</title>
<path fill="none" stroke="black" d="M1048.92,-437.128C1026.54,-435.307 1003.57,-433.527 981.89,-432 703.656,-412.396 630.15,-426.469 348.596,-396"/>
<polygon fill="black" stroke="black" points="348.812,-392.503 338.492,-394.897 348.053,-399.462 348.812,-392.503"/>
</g>
<!-- [root] meta.count&#45;boundary (count boundary fixup)&#45;&gt;[root] aws_route_table_association.us&#45;east&#45;1a&#45;private -->
<g id="edge47" class="edge"><title>[root] meta.count&#45;boundary (count boundary fixup)&#45;&gt;[root] aws_route_table_association.us&#45;east&#45;1a&#45;private</title>
<path fill="none" stroke="black" d="M1246.98,-432.941C1287.14,-422.718 1339.43,-409.409 1382.01,-398.57"/>
<polygon fill="black" stroke="black" points="1382.95,-401.943 1391.77,-396.084 1381.22,-395.159 1382.95,-401.943"/>
</g>
<!-- [root] meta.count&#45;boundary (count boundary fixup)&#45;&gt;[root] aws_route_table_association.us&#45;east&#45;1a&#45;public -->
<g id="edge48" class="edge"><title>[root] meta.count&#45;boundary (count boundary fixup)&#45;&gt;[root] aws_route_table_association.us&#45;east&#45;1a&#45;public</title>
<path fill="none" stroke="black" d="M1134.19,-432.588C1104.02,-422.627 1065.28,-409.836 1033.22,-399.249"/>
<polygon fill="black" stroke="black" points="1034.09,-395.852 1023.5,-396.04 1031.9,-402.499 1034.09,-395.852"/>
</g>
<!-- [root] meta.count&#45;boundary (count boundary fixup)&#45;&gt;[root] aws_s3_bucket.pci_dss_bucket -->
<g id="edge49" class="edge"><title>[root] meta.count&#45;boundary (count boundary fixup)&#45;&gt;[root] aws_s3_bucket.pci_dss_bucket</title>
<path fill="none" stroke="black" d="M1045.89,-437.378C1024.47,-435.576 1002.58,-433.737 981.89,-432 794.049,-416.233 743.892,-419.659 553.04,-396.087"/>
<polygon fill="black" stroke="black" points="553.312,-392.594 542.956,-394.833 552.447,-399.54 553.312,-392.594"/>
</g>
<!-- [root] output.public_ip -->
<g id="node38" class="node"><title>[root] output.public_ip</title>
<ellipse fill="none" stroke="black" cx="1703.89" cy="-378" rx="90.9839" ry="18"/>
<text text-anchor="middle" x="1703.89" y="-374.3" font-family="Times,serif" font-size="14.00">[root] output.public_ip</text>
</g>
<!-- [root] meta.count&#45;boundary (count boundary fixup)&#45;&gt;[root] output.public_ip -->
<g id="edge50" class="edge"><title>[root] meta.count&#45;boundary (count boundary fixup)&#45;&gt;[root] output.public_ip</title>
<path fill="none" stroke="black" d="M1300.85,-435.603C1385.21,-425.608 1501.74,-411.12 1603.89,-396 1611.82,-394.827 1620.08,-393.533 1628.32,-392.2"/>
<polygon fill="black" stroke="black" points="1629.03,-395.631 1638.33,-390.559 1627.89,-388.723 1629.03,-395.631"/>
</g>
<!-- [root] var.aws_region -->
<g id="node39" class="node"><title>[root] var.aws_region</title>
<ellipse fill="none" stroke="black" cx="2157.89" cy="-378" rx="87.1846" ry="18"/>
<text text-anchor="middle" x="2157.89" y="-374.3" font-family="Times,serif" font-size="14.00">[root] var.aws_region</text>
</g>
<!-- [root] meta.count&#45;boundary (count boundary fixup)&#45;&gt;[root] var.aws_region -->
<g id="edge51" class="edge"><title>[root] meta.count&#45;boundary (count boundary fixup)&#45;&gt;[root] var.aws_region</title>
<path fill="none" stroke="black" d="M1366.46,-444.096C1544.43,-437.874 1822.47,-424.329 2061.89,-396 2069.96,-395.046 2078.37,-393.852 2086.72,-392.541"/>
<polygon fill="black" stroke="black" points="2087.54,-395.955 2096.85,-390.894 2086.42,-389.045 2087.54,-395.955"/>
</g>
<!-- [root] output.public_ip&#45;&gt;[root] aws_instance.open_vpn -->
<g id="edge52" class="edge"><title>[root] output.public_ip&#45;&gt;[root] aws_instance.open_vpn</title>
<path fill="none" stroke="black" d="M1678.74,-360.59C1665.95,-351.174 1651.01,-338.377 1640.89,-324 1627.75,-305.325 1619.16,-280.79 1614.05,-262.21"/>
<polygon fill="black" stroke="black" points="1617.39,-261.123 1611.5,-252.313 1610.61,-262.87 1617.39,-261.123"/>
</g>
<!-- [root] provider.aws (close) -->
<g id="node40" class="node"><title>[root] provider.aws (close)</title>
<ellipse fill="none" stroke="black" cx="867.89" cy="-450" rx="105.082" ry="18"/>
<text text-anchor="middle" x="867.89" y="-446.3" font-family="Times,serif" font-size="14.00">[root] provider.aws (close)</text>
</g>
<!-- [root] provider.aws (close)&#45;&gt;[root] aws_db_instance.drupal_rds -->
<g id="edge53" class="edge"><title>[root] provider.aws (close)&#45;&gt;[root] aws_db_instance.drupal_rds</title>
<path fill="none" stroke="black" d="M940.73,-436.983C954.376,-435.06 968.545,-433.284 981.89,-432 1345.89,-396.985 1439.19,-422.864 1803.89,-396 1826.17,-394.359 1850.11,-392.138 1872.62,-389.844"/>
<polygon fill="black" stroke="black" points="1873.27,-393.296 1882.86,-388.787 1872.55,-386.333 1873.27,-393.296"/>
</g>
<!-- [root] provider.aws (close)&#45;&gt;[root] aws_eip.open_vpn_eip -->
<g id="edge54" class="edge"><title>[root] provider.aws (close)&#45;&gt;[root] aws_eip.open_vpn_eip</title>
<path fill="none" stroke="black" d="M935.447,-436.079C997.039,-424.3 1088.12,-406.88 1153.45,-394.385"/>
<polygon fill="black" stroke="black" points="1154.13,-397.818 1163.3,-392.501 1152.82,-390.942 1154.13,-397.818"/>
</g>
<!-- [root] provider.aws (close)&#45;&gt;[root] aws_elasticache_cluster.redis_cluster -->
<g id="edge55" class="edge"><title>[root] provider.aws (close)&#45;&gt;[root] aws_elasticache_cluster.redis_cluster</title>
<path fill="none" stroke="black" d="M824.17,-433.465C796.041,-423.47 759.174,-410.37 728.646,-399.522"/>
<polygon fill="black" stroke="black" points="729.57,-396.136 718.976,-396.086 727.227,-402.732 729.57,-396.136"/>
</g>
<!-- [root] provider.aws (close)&#45;&gt;[root] aws_lb_listener.pci_lb_listener -->
<g id="edge56" class="edge"><title>[root] provider.aws (close)&#45;&gt;[root] aws_lb_listener.pci_lb_listener</title>
<path fill="none" stroke="black" d="M850.488,-432.229C833.242,-413.53 811.582,-382.909 827.89,-360 840.276,-342.603 858.784,-330.863 878.69,-322.956"/>
<polygon fill="black" stroke="black" points="880.035,-326.191 888.234,-319.48 877.64,-319.614 880.035,-326.191"/>
</g>
<!-- [root] provider.aws (close)&#45;&gt;[root] aws_route53_zone.hosted_zone -->
<g id="edge57" class="edge"><title>[root] provider.aws (close)&#45;&gt;[root] aws_route53_zone.hosted_zone</title>
<path fill="none" stroke="black" d="M775.64,-441.294C673.77,-432.4 504.679,-416.498 348.764,-396.068"/>
<polygon fill="black" stroke="black" points="348.885,-392.554 338.514,-394.716 347.97,-399.494 348.885,-392.554"/>
</g>
<!-- [root] provider.aws (close)&#45;&gt;[root] aws_route_table_association.us&#45;east&#45;1a&#45;private -->
<g id="edge58" class="edge"><title>[root] provider.aws (close)&#45;&gt;[root] aws_route_table_association.us&#45;east&#45;1a&#45;private</title>
<path fill="none" stroke="black" d="M942.95,-437.374C955.923,-435.489 969.288,-433.624 981.89,-432 1125.36,-413.508 1164.12,-412.59 1312.13,-396.077"/>
<polygon fill="black" stroke="black" points="1312.96,-399.506 1322.5,-394.914 1312.18,-392.55 1312.96,-399.506"/>
</g>
<!-- [root] provider.aws (close)&#45;&gt;[root] aws_route_table_association.us&#45;east&#45;1a&#45;public -->
<g id="edge59" class="edge"><title>[root] provider.aws (close)&#45;&gt;[root] aws_route_table_association.us&#45;east&#45;1a&#45;public</title>
<path fill="none" stroke="black" d="M892.537,-432.411C906.094,-423.286 923.119,-411.827 937.92,-401.865"/>
<polygon fill="black" stroke="black" points="939.993,-404.688 946.335,-396.201 936.084,-398.881 939.993,-404.688"/>
</g>
<!-- [root] provider.aws (close)&#45;&gt;[root] aws_s3_bucket.pci_dss_bucket -->
<g id="edge60" class="edge"><title>[root] provider.aws (close)&#45;&gt;[root] aws_s3_bucket.pci_dss_bucket</title>
<path fill="none" stroke="black" d="M795.558,-436.887C728.582,-425.671 628.262,-408.871 552.922,-396.254"/>
<polygon fill="black" stroke="black" points="553.371,-392.781 542.93,-394.581 552.215,-399.685 553.371,-392.781"/>
</g>
<!-- [root] root -->
<g id="node41" class="node"><title>[root] root</title>
<ellipse fill="none" stroke="black" cx="1025.89" cy="-522" rx="47.3916" ry="18"/>
<text text-anchor="middle" x="1025.89" y="-518.3" font-family="Times,serif" font-size="14.00">[root] root</text>
</g>
<!-- [root] root&#45;&gt;[root] meta.count&#45;boundary (count boundary fixup) -->
<g id="edge61" class="edge"><title>[root] root&#45;&gt;[root] meta.count&#45;boundary (count boundary fixup)</title>
<path fill="none" stroke="black" d="M1055.61,-507.834C1078.46,-497.71 1110.47,-483.53 1136.79,-471.866"/>
<polygon fill="black" stroke="black" points="1138.48,-474.946 1146.21,-467.695 1135.65,-468.546 1138.48,-474.946"/>
</g>
<!-- [root] root&#45;&gt;[root] provider.aws (close) -->
<g id="edge62" class="edge"><title>[root] root&#45;&gt;[root] provider.aws (close)</title>
<path fill="none" stroke="black" d="M996.172,-507.834C972.742,-497.453 939.684,-482.807 912.995,-470.983"/>
<polygon fill="black" stroke="black" points="914.407,-467.781 903.847,-466.93 911.572,-474.181 914.407,-467.781"/>
</g>
</g>
</svg>
